<svg id="Слой_1" data-name="Слой 1" xmlns="http://www.w3.org/2000/svg" viewBox="0 0 707.97 550.47"><defs><style>.cls-1{fill:#14274e;}</style></defs><title>books</title><path class="cls-1" d="M528,520.27v-2.8H512c3.88-50.17-4.19-92.09-24.64-128.06-17.79-31.27-41.77-52.23-61-69.07-18.57-16.24-33.24-29.06-33.24-43.34s14.67-27.1,33.24-43.33c19.26-16.84,43.24-37.8,61-69.08,20.88-36.72,28.86-79.65,24.39-131.22l0-.37H529V30.2A13.09,13.09,0,0,1,542,17h.13V0h-360V17h1.12a13.09,13.09,0,0,1,13,13.2V33h16.28l0,.37c-4.47,51.57,3.51,94.5,24.39,131.22,17.79,31.28,41.77,52.24,61,69.08,18.57,16.23,33.23,29.05,33.23,43.33s-14.66,27.1-33.23,43.34c-19.26,16.84-43.24,37.8-61,69.07-20.45,36-28.52,77.89-24.64,128.06h-17v2.8a13.09,13.09,0,0,1-13,13.2h-.14v17h360v-17H541A13.09,13.09,0,0,1,528,520.27ZM205.69,19.84a3.5,3.5,0,0,1,0-7h0c36.34.3,72.95.39,108.84.28h0a3.5,3.5,0,0,1,0,7q-14.66,0-29.46,0C258.77,20.16,232.16,20.05,205.69,19.84ZM314.61,537.59q-14.61,0-29.36,0c-26.38,0-53-.11-79.56-.33a3.5,3.5,0,0,1,0-7h0c36.39.3,73,.39,108.84.28h0a3.5,3.5,0,0,1,0,7Zm-54.72-44.38-.07-.1c-2.57-3.77-2.51-6.79.19-9a58.76,58.76,0,0,1,8.35-5.27c1.24-.69,2.52-1.41,3.72-2.12,2.5-1.51,5-3.1,7.43-4.64,1.59-1,3.18-2,4.78-3,2.92-1.81,5-2.61,6.86-2.61,2.14,0,3.84,1.15,5.19,3.54a34,34,0,0,1,1.65,3.51,27,27,0,0,0,2.17,4.38,1.56,1.56,0,0,0,1.3.69,1.48,1.48,0,0,0,1.07-.43,1.42,1.42,0,0,0,.4-1,25.14,25.14,0,0,0-2.58-9.43,14.67,14.67,0,0,0-1-1.75,10.62,10.62,0,0,1-1.18-2.29c-.82-2.64,2.2-4.65,5.27-6.28l.35-.19c1.58-.83,3.54-1.88,5.38-1.88a4.18,4.18,0,0,1,1.55.28c2.25.88,4,4.23,4.94,6l.4.76c1.56,2.93,3.7,6.94,1.58,9.8-1.21,1.63-3.14,2.56-5,3.47-.7.34-1.43.69-2.09,1.07-4.67,2.67-8.81,5.09-12.65,7.39s-7.35,4.46-10.72,6.59c-1.78,1.13-3.52,2.32-4.84,3.22l-2.09,1.45c-1.95,1.35-4,2.75-6,4.06-1,.63-2,1.18-3,1.7-.73.39-1.46.79-2.18,1.21-2.14,1.27-4.25,2.69-6.28,4.06-1.82,1.22-3.69,2.49-5.6,3.65s-4.69,2.66-7.21,2.66a5.54,5.54,0,0,1-4-1.66c-3.06-3-6.55-7.84-6.33-11.62a4.73,4.73,0,0,1,1.94-3.62l.9-.72c2.27-1.81,5.09-4.06,7.87-4.06a5.25,5.25,0,0,1,.56,0c3.65.42,7.3,6.66,9.15,10.34a1.37,1.37,0,0,0,1.27.8,1.66,1.66,0,0,0,1.66-1.57C263.05,497.85,261.37,495.39,259.89,493.21ZM366,513.55a1,1,0,0,1-.6.68,1.52,1.52,0,0,1-.51.08,6.46,6.46,0,0,1-1.44-.24c-.29-.07-.58-.14-.83-.18a22.27,22.27,0,0,0-3.19-.21c-1.4,0-2.82.1-4.2.19l-.58,0-.6,0a5.11,5.11,0,0,1-4.12-1.74c-2.34-2.8-1.95-8.38-1.21-12.58a1.25,1.25,0,0,0-.28-1,1.29,1.29,0,0,0-1-.48,1,1,0,0,0-.93.63c-1.59,3.34-1.86,6.51-2.15,9.88-.06.7-.12,1.42-.2,2.15-.32,3.17-3,3.44-6.28,3.45l-22.05.08c-3.43,0-6.09-1-7.9-3-2.39-2.58-3.36-6.85-2.89-12.68a1,1,0,0,0-.28-.77,1.26,1.26,0,0,0-.94-.41,1,1,0,0,0-1,.6,19.16,19.16,0,0,0-1.31,9.87c.27,2.65-.19,4.86-1.27,6.06a3.64,3.64,0,0,1-2.84,1.15,6.6,6.6,0,0,1-1.14-.1c-4.54-.78-6.81-7.72-6.92-12.16-.05-2.44.71-6.58,2.57-8.16a6.54,6.54,0,0,1,4.39-1.23c.92,0,1.85.08,2.67.15l.29,0c2.53.22,5.11.23,7.6.25l2.89,0c4.53.08,9.14.08,13.6.09h6.27c3.74,0,7.5.07,11.26.13,4.35.06,8.85.13,13.28.13,3.35,0,6.36,0,9.18-.12a17.21,17.21,0,0,0-.95,7,32.59,32.59,0,0,0,1.85,7.66,12.8,12.8,0,0,0,.62,1.39C365.48,511.35,366.22,512.87,366,513.55ZM410,508c-1.72,1-4.42,1.14-6.3,1.14h-1.79l-4.19,0c-4.19,0-7.61.09-10.76.3a1.21,1.21,0,0,0-1.18,1.21,1.23,1.23,0,0,0,1.18,1.25l1.3.07c2.29.12,9.13.47,10.06.86a.26.26,0,0,1-.07.16c-.23.27-1,.6-3.51.6-1.14,0-2.33-.07-3.21-.12-.56,0-1-.06-1.38-.06h0c-4.52,0-9.19,0-13.78.2h-.2c-2.2,0-6.81-.83-7.41-2.34-.2-.48,0-1.06.71-1.7,1.82-1.75,3.89-1.82,6.28-1.9l1.14,0,3.28-.21c1.75-.13,3.56-.25,5.34-.29H387c1.38,0,2.79,0,4.23.06s3,.06,4.47.06A41.4,41.4,0,0,0,407.17,506c.2-.06.74-.22.7-.64-.07-.79-2.89-1.21-2.92-1.21-2.11-.26-4-.47-6-.59-2.83-.17-5.71-.21-8.49-.25l-3.07,0c-3.9-.07-7.81-.14-11.72-.19-.58,0-2.34,0-3-.83a1.37,1.37,0,0,1-.26-1.13c.13-.88,1.21-1.16,2.16-1.41a20,20,0,0,1,5-.47h1.67c.51,0,1,0,1.52,0l4.41-.15c5-.16,10.23-.32,15.32-.75a1.11,1.11,0,0,0,0-2.22c-4.77-.41-9.63-.49-14.32-.57-3.24-.05-6.58-.11-9.87-.27-.88,0-1.13-.24-1.14-.34,0-.29.87-1,1.86-1.23a27,27,0,0,1,6.07-.57c1.77,0,3.59.1,5.35.19s3.41.18,5,.18h8.29l1.57,0a13.48,13.48,0,0,1,4.63.58,1.35,1.35,0,0,1,.88.74c.13.45-.26,1-.54,1.39s-.47.68-.2.92l.26.23c.64.56.88.77.7,1.67a2.39,2.39,0,0,1-.71,1,2.43,2.43,0,0,0-.8,1.21,3,3,0,0,0,.71,1.9,5.78,5.78,0,0,1,.48.85C411.56,506,411.35,507.2,410,508Zm25.58-4.83c-.38,3-.85,5.89-2.46,7.83a7.2,7.2,0,0,1-5,2.4h-.32c-.47,0-1.19-.05-2-.12s-1.91-.16-2.71-.16l-.53,0c2.13-2.56,2.69-7,2.92-10.68A25.27,25.27,0,0,0,423.23,490a26,26,0,0,0,3.58.34c1.91.11,4.08.23,4.77.62C436,493.5,436,499.73,435.54,503.21Zm31,5.16a5.62,5.62,0,0,1-1.7,2.09,10.39,10.39,0,0,1-5.86,1.78l-3,.11c-2.32.09-4.72.19-7.09.2l-1.41,0c-.59,0-1.21,0-1.85,0-2.28,0-5-.19-6.19-1.69a3.87,3.87,0,0,1-.35-3.43,25.35,25.35,0,0,0,.71-10.43c0-.35-.13-.72-.2-1.11-.34-1.74-.73-3.71.37-5,.68-.8,2.06-1.18,4.22-1.18,1.19,0,2.43.11,3.53.21.87.08,1.63.14,2.24.15,3,0,6,0,9,0,5.1,0,7.11.86,8.21,5.65C468,499.55,468.08,505.08,466.52,508.37Zm16.36-1.09a6,6,0,0,1-3.82,4,12.75,12.75,0,0,1-4.51.75c-1.63,0-2.7-.34-3.26-1-.89-1.11-.46-3.11,0-5.23l.3-1.42a28.47,28.47,0,0,0,.49-7.34,12.22,12.22,0,0,0-.37-1.84c-.42-1.62-.84-3.3.26-4.3a2.77,2.77,0,0,1,1.93-.63,11.3,11.3,0,0,1,4.46,1.29,6.72,6.72,0,0,1,3.84,4.4A19.12,19.12,0,0,1,482.88,507.28Zm22,1.61c-2.39,2.08-3.31-1.71-3.24-3.73.23-5.91.19-11.8-.17-17.7-.71-11.42-2.87-22.6-4.05-34-2.86-27.54-14.62-54.15-34.94-79.08a3.5,3.5,0,0,0-5.43,4.42c19.47,23.88,30.71,49.27,33.42,75.46l0,.15c1.38,9.37,2.75,18.56,3.57,27.61a9.66,9.66,0,0,1-2.68,5.73,7.74,7.74,0,0,1-5,2.12,4,4,0,0,1-3.48-1.84,7.18,7.18,0,0,0-4.56-3.12,12.62,12.62,0,0,0-2.34-.16h-.66a15.06,15.06,0,0,1-1.74-.07,70.15,70.15,0,0,0-7.87-.5c-2.64,0-5.29,0-7.93,0-3.65,0-7.83.71-11.26-.66-3.12-1.25-5.09-4.57-8.38-5.64a11.63,11.63,0,0,1-3.37-1.33c-2.86-2.08,5.37-1.27,5.17-1.32,3.87.83,8,3.44,11.29,5.51a1.21,1.21,0,0,0,.66.19,1.37,1.37,0,0,0,1.24-.89,1.21,1.21,0,0,0-.3-1.38,33.82,33.82,0,0,0-3.66-3,12.75,12.75,0,0,0-1.43-.84,7.18,7.18,0,0,1-2.22-1.57,2.23,2.23,0,0,1,.77-.14,6.43,6.43,0,0,1,3.1,1.32c.26.17.51.33.75.47,1.3.76,2.57,1.56,3.85,2.36,1.07.67,2.15,1.34,3.23,2a1.41,1.41,0,0,0,.7.2,1.25,1.25,0,0,0,1.13-.76,1.41,1.41,0,0,0-.19-1.52c-4-4.82-11-8-16.7-10.19a52.09,52.09,0,0,0-19-3.37c-1,0-2,0-3,.07-13.08.63-24.72,6.59-32,16.37-5.95-10.3-15-17.33-24.79-19.31a33.12,33.12,0,0,0-6.51-.63c-9.7,0-20.88,4.15-30.69,11.38a1.47,1.47,0,0,0-.48,1.62,1.12,1.12,0,0,0,1.06.82,1.48,1.48,0,0,0,.46-.08c2-.72,4.4-3,6.6-3.06,5.51-.17,1.84,2.46-1.46,3.89a.93.93,0,0,0-.53,1.06,1.1,1.1,0,0,0,1,.9.9.9,0,0,0,.28,0c1.47-.44,2.9-1,4.28-1.48,2.17-.8,11.65-5.05,11,.48-.27,2.24-4.24,3.07-5.86,3.48-4.12,1-18.65,7.2-22.11,4.4-6.58-5.32,4.45-9.55,2.54-14.93-2.49-7-5.9-16.62-13.46-17.9a5,5,0,0,0-1-.08c-2.83,0-5.79,1.9-8.17,3.43l-.85.54c-1.4.89-2.79,1.86-4.12,2.79s-2.42,1.7-3.66,2.5c-3.65,2.34-7.43,4.65-11.08,6.87-3,1.82-6.06,3.7-9.05,5.59-3.29,2.08-6.69,4.12-10,6.09-3.71,2.22-7.55,4.53-11.25,6.9s-7.16,4.77-10.4,7.21a7.12,7.12,0,0,1-4.25,1.54,6.19,6.19,0,0,1-4.41-1.93,8.66,8.66,0,0,1-1.37-3.1,15.18,15.18,0,0,0-1-2.63,204.66,204.66,0,0,1,5-37.1,3.5,3.5,0,0,0-6.83-1.55,211.34,211.34,0,0,0-5,34.33q-.52,8.63-.32,17.28c0,1.49,1.61,12.46-2.21,11.5-1.34-.34-1.11-2.8-1.19-3.76-.3-4.15-.3-8.37-.31-12.53,0-7.79.27-15.58,1-23.34a207.48,207.48,0,0,1,7.33-39.94,182.34,182.34,0,0,1,33.74-63.95c12.53-15.43,27.27-28.73,42.2-41.77,19.9-17.41,35.62-31.15,35.62-48.61s-15.72-31.2-35.62-48.6c-14.93-13.06-29.68-26.36-42.22-41.8a182.19,182.19,0,0,1-33.74-64A209.9,209.9,0,0,1,219,80.67c-.65-8.19-.87-16.42-.75-24.64.06-3.83-.5-8.66.85-12.28,1.21-3.24,3.27-2.15,3.87.69.82,3.86-.16,8.73-.22,12.69a237.84,237.84,0,0,0,1,26.42,3.49,3.49,0,0,0,3.48,3.15h.35a3.51,3.51,0,0,0,3.14-3.83,137.77,137.77,0,0,1,.32-27.92c1.93-19.51,21.19-17.77,36-17.77h181c14.61,0,36.59-4,44.36,12.53,2.94,6.27,2.15,13.72,2,20.47a3.5,3.5,0,0,0,3.4,3.59h.1a3.5,3.5,0,0,0,3.5-3.4c.14-5.36-.23-10.72-.12-16.07,0-2.08-.84-8.86,1.45-9.92,4-1.86,3.19,12.76,3.2,14.11,0,7.46-.2,14.92-.8,22.36a212,212,0,0,1-6.66,38.9,182.31,182.31,0,0,1-33.82,66c-12.69,15.81-27.72,29.39-43,42.7-19.9,17.4-35.63,31.14-35.63,48.6s15.73,31.2,35.63,48.61c13.8,12.06,27.46,24.32,39.34,38.33a183.33,183.33,0,0,1,35.25,63,205.26,205.26,0,0,1,8.64,43.85c.77,8.56,1.07,17.16,1,25.75C505.89,499.8,507.73,506.39,504.85,508.89Z" transform="translate(0 0)"/><path class="cls-1" d="M427.17,338.77c-11.33-9.79-23.05-19.92-33.65-31.17a54.85,54.85,0,0,1-11.17-23.35c-4.05-22.45,11.25-40.45,24.72-51.55,26.08-20.28,46-40.08,60.81-60.5,18.1-24.92,28.72-51.26,31.57-78.29a3.5,3.5,0,0,0-7-.74q-.39,3.6-1,7.16a10.82,10.82,0,0,0-3.16-.81l-.42-.07a18.34,18.34,0,0,0-2.81-.23,9.76,9.76,0,0,0-7.26,2.62,11.64,11.64,0,0,0-1.12.84l-2.25,1.9c-5.26,4.42-11.21,9.41-14.6,15.3l-1.53-1c-2.93-1.94-6-3.93-9.14-5.62l0-.07a16.6,16.6,0,0,1-1.05-1.53c.12-2.73-1.28-6.47-4.15-11.12-3.38-5.48-6.82-8-10.83-8a14.09,14.09,0,0,0-6.69,2,46.65,46.65,0,0,1-11,4.51c-6.41,1.71-13,3-19.16,4.13-3.63.67-7.35,1.23-10.95,1.77-1.93.29-3.87.57-5.8.88-3.29.53-5.81,1-8.19,1.47a14.7,14.7,0,0,0-1.45.41,10.79,10.79,0,0,1-3,.66,1.41,1.41,0,0,1-1.57-1.06,1.77,1.77,0,0,1,.3-1.6c2.53-3.43,16.26-3.87,20.77-4,.47,0,.84,0,1.11,0a1.26,1.26,0,0,0,1.23-1.12,1.23,1.23,0,0,0-.9-1.36A34.4,34.4,0,0,0,378,97.68a37.6,37.6,0,0,0-14.48,3,17.7,17.7,0,0,0-2.21,1.21,9.57,9.57,0,0,1-3.74,1.61c.8-2.31,3.46-3.5,5.82-4.56.42-.19.84-.38,1.22-.57a43,43,0,0,1,18.77-4.1,51.31,51.31,0,0,1,11,1.2,1.53,1.53,0,0,0,.3,0,1.06,1.06,0,0,0,1-.74,1.2,1.2,0,0,0-.44-1.35c-3.53-2.66-8.61-4.07-14.67-4.07a47,47,0,0,0-17.44,3.51,57.59,57.59,0,0,0-11.43,6.51c-.24.17-.62.52-1.11,1-1.34,1.23-3.84,3.52-5.12,3.52a.57.57,0,0,1-.45-.17,1.91,1.91,0,0,1-.33-1.32c0-2.52,4.26-5.84,6.54-7.62l.76-.6A38.28,38.28,0,0,1,362.9,88a56.48,56.48,0,0,1,18.4-3,44.43,44.43,0,0,1,15.52,2.47,1,1,0,0,0,.41.08,1.18,1.18,0,0,0,1.1-.95,1.15,1.15,0,0,0-.55-1.33,45.16,45.16,0,0,0-21-4.84,50.46,50.46,0,0,0-18,3.24,44.77,44.77,0,0,0-22.16,20.62c-4.18-9.75-14-19.36-23.49-23a48.07,48.07,0,0,0-17-2.87c-9.44,0-18.56,2.32-25,6.37a1.23,1.23,0,0,0-.51,1.41,1.12,1.12,0,0,0,1.06.86A1.47,1.47,0,0,0,272,87c5.63-2,12.05-2.38,17.63-2.59,1.81-.07,3.32-.1,4.75-.1a48.94,48.94,0,0,1,14.4,1.77,30,30,0,0,1,12,7.59l.58.55c1.17,1.09,2.64,2.46,2.56,4-.07,1.35-.79,1.35-1,1.35a3.27,3.27,0,0,1-1.49-.49c-.79-.45-1.57-.92-2.34-1.38a51.51,51.51,0,0,0-5.64-3,42.2,42.2,0,0,0-17.14-3.41c-7.86,0-16.44,1.78-25.49,5.27a1.35,1.35,0,0,0-.9,1.53,1.28,1.28,0,0,0,1.29,1.07,1.84,1.84,0,0,0,.33,0c6.8-1.35,14.08-2.61,21.24-2.61a44.21,44.21,0,0,1,15.94,2.67c4.9,1.88,10.55,4.72,10.31,6.57-.08.62-.41.89-1.08.89a10.13,10.13,0,0,1-3.37-1.05c-.36-.16-.66-.29-.88-.37a49.32,49.32,0,0,0-10.16-2.4,43.61,43.61,0,0,0-5-.3,39.85,39.85,0,0,0-15.13,2.94,1.5,1.5,0,0,0-.95,1.69,1.34,1.34,0,0,0,1.34,1.11,1.74,1.74,0,0,0,.39,0,42.14,42.14,0,0,1,9.24-1,50.62,50.62,0,0,1,9.51.93l1.5.27c2.41.41,5.4.92,7.18,2.12.79.52,1.18,1.17,1.07,1.77s-.8,1.2-1.83,1.45a16.56,16.56,0,0,1-3.78.32,26.19,26.19,0,0,0-2.65.1,39.49,39.49,0,0,0-6.81,1.34,1.38,1.38,0,0,0-.57.34c-3.37-.55-6.71-1.43-9.93-2.28-1.58-.42-3.17-.84-4.77-1.22a96.09,96.09,0,0,0-13.46-1.92l-2.65-.25c-2.13-.22-4.28-.56-6.36-.9-.9-.14-1.79-.29-2.69-.42l-1.37-.23a23.13,23.13,0,0,0-4-.47,7.42,7.42,0,0,0-2.47.37c-3.14,1.11-4.76,4-6.33,6.89-.55,1-1.07,1.93-1.64,2.77l-.59.86c-.69,1-1.46,2.13-2.14,3.27-2.53-8.55-4.41-17.44-6.4-27.37a3.5,3.5,0,1,0-6.86,1.37c3.27,16.33,6.26,29.93,12.27,44,15.24,36.58,44.16,62.66,74.92,88.29,15.48,13.55,29.81,28.9,29.81,49.37,0,10.43-6.1,19.6-12,28.47l-.83,1.25a3.49,3.49,0,0,0,1,4.85,3.42,3.42,0,0,0,1.93.59,3.5,3.5,0,0,0,2.92-1.57l.82-1.24c6.47-9.74,13.16-19.81,13.16-32.35a51.43,51.43,0,0,0-5.33-22.73l.21.11a10.27,10.27,0,0,1,1.2.64c1.08.73,2.2,1.41,3.29,2.07a41.15,41.15,0,0,1,5.63,3.85,29.71,29.71,0,0,0,11.2,5.67,4.86,4.86,0,0,0,1,.11c3,0,5.23-3,7-5.34l.23-.31a8.71,8.71,0,0,0,.54-.92c.41-.77,1.11-2.06,1.67-2.09s.68,2.08.7,3.32c0,.17,0,.34,0,.5a48.14,48.14,0,0,0-1.3,22.75l0,.13a61.91,61.91,0,0,0,12.76,26.52l.11.12c10.85,11.53,22.74,21.8,34.23,31.73,5.58,4.83,11.35,9.82,16.89,14.86a3.5,3.5,0,1,0,4.71-5.18C438.6,348.65,432.79,343.63,427.17,338.77ZM400.45,213a5.43,5.43,0,0,1-4.42,4.29l-.31,0-.43,0c-2.07,0-4-1.2-5.8-2.35-.81-.51-1.58-1-2.36-1.39s-1.35-.63-2.09-1c-2.26-1-4.83-2.18-6.35-3.64s-.29-3.06.84-4.68c.22-.32.43-.63.62-.93s.43-.73.66-1.16a9,9,0,0,1,2.36-3.2,2.45,2.45,0,0,1,1.29-.35c2.13,0,4.86,2.22,6.49,3.55l.72.57,1.52,1.2a60.36,60.36,0,0,0,5.18,3.84A4.7,4.7,0,0,1,400.45,213ZM433,191.77c-.05.76-.11,1.51-.14,2.26,0,.47,0,1,0,1.47l0,.39c0,1.76.09,3.59-.87,4.94a8.61,8.61,0,0,1-4.44,3,4.92,4.92,0,0,1-1.3.17,12,12,0,0,1-2.4-.33,19.23,19.23,0,0,0-1.92-.31c-2.63-.25-5.33-.37-8-.37A70.08,70.08,0,0,0,401.14,204c-2-1.26-4-2.67-5.91-4l-1.83-1.31c-.56-.39-1.15-.86-1.76-1.34-2.25-1.78-4.8-3.79-7.5-3.79H384c-2.57.08-4.07,2.64-5.27,4.7l-.29.51a75.09,75.09,0,0,0-.06-13.81h.3c2,0,8.44-.7,11.18-1l1.2-.13a7.21,7.21,0,0,1,.79,0c3.73,0,6.21,2.76,6.32,7a39.3,39.3,0,0,1-.23,4.48c-.11,1.15-.22,2.34-.24,3.53a1.38,1.38,0,0,0,.38,1,1.57,1.57,0,0,0,2.56-.61,35.12,35.12,0,0,0,2-10.1,16.36,16.36,0,0,0-.1-2c-.11-1.2-.21-2.23.33-2.85a3.13,3.13,0,0,1,2.25-.79c.71,0,1.47-.07,2.34-.07s1.81,0,2.71.05c.74,0,1.49,0,2.23,0h1.51a3.71,3.71,0,0,1,2.29.58c1.67,1.18,2.6,3.3,2.84,6.46a23.62,23.62,0,0,1-.32,6.34c-.35,1.81-.65,4.11-.09,4.78a.58.58,0,0,0,.48.24,1.37,1.37,0,0,0,.87-.48c2.87-2.77,3.23-7.08,3.34-10.89,0-.52,0-1.09,0-1.68-.07-2.32-.15-5,1.8-6.27a6.92,6.92,0,0,1,3.82-1.31c2.13,0,3.58,1.35,4,3.7A28.73,28.73,0,0,1,433,191.77Zm-17.92-23.4v-.14c.1-.57,3.48-2.42,4.76-3.11.55-.3,1-.54,1.19-.67,1.45-.92,3.32-2,4.89-2s2.85,1.2,3.63,3.67c1.64,5.18-3.16,10-7.77,12.52a2.38,2.38,0,0,1-1.09.36c-.4,0-.88-.2-1.34-1.69l-.12-.38a22.13,22.13,0,0,0-3.07-7c-.14-.18-.29-.35-.44-.52A1.76,1.76,0,0,1,415.06,168.37ZM459,151.53a18.2,18.2,0,0,1-5.46,4.34c-.87.53-1.77,1.07-2.6,1.66-.63.45-1.52,1.17-2.55,2-3.52,2.85-8.83,7.15-11.81,7.15a2,2,0,0,1-1.05-.26c-2.22-1.32-4.74-6-3.41-8.38,1.12-2,6.66-5.06,8.8-5.63a4,4,0,0,1,1-.15c1.37,0,1.76,1.09,2.21,2.35a4.7,4.7,0,0,0,1.65,2.63,1.1,1.1,0,0,0,.59.2.78.78,0,0,0,.58-.26c.63-.65.67-2.45.62-4.13v-.29c0-.33,0-.64,0-.94,0-2.13-.07-3.67,1.87-5.06.43-.3.93-.72,1.46-1.16,1.68-1.39,4-3.31,5.92-3.31a2.56,2.56,0,0,1,1.44.42,4.51,4.51,0,0,1,1.81,3.06A8.15,8.15,0,0,1,459,151.53Zm7.15-15.62a8.66,8.66,0,0,1,3.81-1.42,1.66,1.66,0,0,1,.57.09,1.82,1.82,0,0,1,.45.2c1.86,1,2.05,3.76,2.18,5.74l0,.39a6.34,6.34,0,0,1-1.85,4.53,5.3,5.3,0,0,1-3.69,1.89A3.2,3.2,0,0,1,465,146c-1.73-2.22-2.46-4.34-2.11-6.15A6,6,0,0,1,466.13,135.91ZM445.7,116.78a5.07,5.07,0,0,1,.55,0c3,.42,5.71,2.73,8.14,4.77.57.48,1.12.94,1.65,1.36a31.54,31.54,0,0,0,2.61,1.78,15.52,15.52,0,0,1,4.59,3.79,3.4,3.4,0,0,1,.69,1.66c.16,2-2.46,3.21-4.77,4.31a21.59,21.59,0,0,0-2.23,1.16c-1.6,1-3.19,2.17-4.72,3.28a60.49,60.49,0,0,1-7.92,5.12,30.49,30.49,0,0,0-4.33,2.84,29.59,29.59,0,0,1-4,2.66,38.13,38.13,0,0,0-7.52,4.86,60.77,60.77,0,0,1-7.64,5.48c-.32.2-.68.45-1.06.71-1.11.76-2.35,1.62-3.43,1.62-1.39,0-1.61-1.33-1.8-3.34a13.07,13.07,0,0,0-.23-1.72,66.13,66.13,0,0,0-3.68-10q-.6-1.37-1.17-2.76c-1.27-3,.12-5.82,3.7-7.43a57.44,57.44,0,0,0,8.09-4.76c.93-.61,1.85-1.23,2.79-1.83,2.2-1.4,4.39-2.88,6.52-4.31s4.38-3,6.62-4.37c.69-.44,1.42-1,2.2-1.61C441.3,118.52,443.55,116.78,445.7,116.78Zm-41.85.45c0-.2.11-.39.17-.57.41-1.15,1.08-1.73,2-1.73a4.65,4.65,0,0,1,2.76,1.27c2.63,2.22,3.25,6.28,3.75,9.55l0,.26a1.15,1.15,0,0,0,1.18,1,1.59,1.59,0,0,0,1.58-1.36c.45-4.56-.67-11.12-3.65-15l.26-.14.66-.34c.67-.36,1.35-.77,2-1.18,2.27-1.37,4.62-2.78,7.14-2.78a7.21,7.21,0,0,1,1.23.11c4.8.92,5.71,5.75,6,10.36a1.28,1.28,0,0,0,1.27,1.26,1.43,1.43,0,0,0,1.14-.59c2.23-3,1.1-6.34,0-9.55a21.65,21.65,0,0,1-1.14-4.24,7,7,0,0,1,1.61-4.86,3,3,0,0,1,2.1-1.1,3.2,3.2,0,0,1,2.24,1.16A14.13,14.13,0,0,1,439,104.5l.14.42c2.31,7.18-1.63,10-8.39,13.84a54.41,54.41,0,0,0-5.56,3.78c-1.29.95-2.62,1.95-4,2.83A25.74,25.74,0,0,0,419,127a17.58,17.58,0,0,1-3.29,2.28l-.53.26c-2.33,1.15-4.35,2.15-6,2.15-1.8,0-3-1.2-3.85-3.87C404.24,124.53,403.1,120.31,403.85,117.23Zm-42.26-3c.23-.41,1-.63,2.2-.63a33.5,33.5,0,0,1,5.53.71,22.25,22.25,0,0,0,2.25.35,39.15,39.15,0,0,1,5.84.8c1.92.4,3.87.89,5.75,1.37,1.18.3,2.35.59,3.49.86a17.91,17.91,0,0,0,2.23.31c1.79.19,3.81.4,4.61,1.42a25.33,25.33,0,0,1,3,6.24c.28.74.56,1.45.84,2.11a68.9,68.9,0,0,1,4,13.66,102.87,102.87,0,0,0,2.57,10.09c.29,1,.57,2,.85,3s.66,1.91,1,2.83a19.93,19.93,0,0,1,1.27,4c.14.73.44,2.44,0,3a1.18,1.18,0,0,1-1,.33,8.91,8.91,0,0,1-1.43-.19c-.25,0-.48-.1-.7-.13-2.71-.36-5.44-.92-8.08-1.47-2.87-.59-5.84-1.2-8.81-1.56-.72-.09-1.5-.1-2.25-.12-2.27-.05-4.43-.09-5.72-2a13.43,13.43,0,0,1-1.62-3.81c-.23-.72-.46-1.47-.75-2.18-.68-1.64-1.37-3.28-2.05-4.91q-1.26-3-2.51-6c-.7-1.7-1.43-3.37-2.16-5a95.39,95.39,0,0,1-5.11-13.6,22.2,22.2,0,0,0-1.2-2.82C362.62,118.54,361,115.18,361.59,114.19Zm-7.06,21.37c3.27-3.66,6.09,6.58,6.83,8.37,1.86,4.46,3.78,9.06,5.94,13.48a1,1,0,0,0,.93.62,1.29,1.29,0,0,0,1-.58,1.2,1.2,0,0,0,.1-1.17c-2.05-4.73-3.87-9.62-5.63-14.35-1.07-2.86-2.17-5.81-3.31-8.7-.46-1.16-.92-2.32-1.39-3.48-.87-2.19-1.75-4.37-2.59-6.58-.08-.23-.19-.5-.32-.82-.25-.6-.54-1.33-.81-2.08a11.43,11.43,0,0,1-.75-3.32,2.21,2.21,0,0,1,.18-1c.29-.55.58-.83.89-.83.52,0,1.43.71,2.83,4.11l.05.11c1.4,3.38,2.84,6.93,4.27,10.55,2.52,6.42,5.06,13.15,7.75,20.57l.61,1.71a54.91,54.91,0,0,0,2.66,6.63c.26.52.48,1.1.7,1.67.63,1.68,1.29,3.41,3.09,4a55.49,55.49,0,0,0,9.46,1.84c2,.23,4.12.57,6.13.9,1.67.27,3.38.56,5.07.77.33,0,.81.07,1.38.11,2.09.12,6,.34,6.49,1.88a.76.76,0,0,1-.06.7c-.26.36-1.08.78-3.48.78a62.3,62.3,0,0,1-11.75-1.55l-.23,0c-.78-.16-1.65-.37-2.56-.6a30.75,30.75,0,0,0-7.06-1.18,7.89,7.89,0,0,0-4,.94,1,1,0,0,0-.49.91.91.91,0,0,0,.5.8,30.65,30.65,0,0,0,8.56,2.19c1.15.19,8.49,1,5.48,3.59-1.26,1.07-4.55-.65-5.87-1l-.77-.19c-.91-.23-1.88-.5-2.88-.77a38.21,38.21,0,0,0-9.81-1.84,14,14,0,0,0-2.2.17,2.2,2.2,0,0,0-.12-.61,157.37,157.37,0,0,0-6.58-15.13c-2.06-4.32-4.2-8.79-5.92-13.34C356.08,141.81,352.67,137.65,354.53,135.56Zm-16.35,6.37a8.74,8.74,0,0,1,1.07-.07,20.53,20.53,0,0,1,2.21.16c.69.07,1.4.15,2.11.16h.12c.56,0,1.21-.05,1.9-.11s1.56-.12,2.33-.12a4.51,4.51,0,0,1,3.15.83c1.1,1,1.47,3,1.8,4.67.09.46.17.89.26,1.28a14.56,14.56,0,0,0,.88,2.38,8.41,8.41,0,0,1,1,3.83c-.14,1.78-2.34,3.51-4.1,4.9a22.75,22.75,0,0,0-1.82,1.52c-1,1-2.18,2-3.27,2.9-1.28,1.07-2.59,2.18-3.78,3.39a11.48,11.48,0,0,0-.78.92,4.35,4.35,0,0,1-1.72,1.54,2.59,2.59,0,0,1-.94.14,8.62,8.62,0,0,1-.87-.05c-.31,0-.61,0-.9,0l-.46,0a4.1,4.1,0,0,0-2.78,1.61c-.24.26-.5.53-.81.81a5.13,5.13,0,0,1-2.94,1.26,14,14,0,0,1-2.64.23,36.14,36.14,0,0,1-5.68-.61l-.61-.1a42.81,42.81,0,0,0-6.73-.48c-2.22,0-4.43.12-6.68.25l-1.88.11c-3.53.21-7.19.43-10.78.43h-2.6c-1.08,0-4.39,0-4.81-1.41-.32-1.07,1.46-2.2,2.52-2.87.17-.11.32-.2.44-.29a30.21,30.21,0,0,1,3.72-2l.21-.1a34,34,0,0,0,3.24-1.73c2.51-1.58,5.16-3.08,7.72-4.53,2.74-1.55,5.56-3.15,8.27-4.88,1.88-1.2,3.74-2.48,5.54-3.73,2.77-1.92,5.63-3.9,8.62-5.6l1.29-.74C331.93,144.11,334.94,142.36,338.18,141.93Zm-91.45-17.59c-1.28-4.17,0-10,4.91-10.89a10.29,10.29,0,0,1,2-.17,29,29,0,0,1,5.57.74c1.11.22,2.25.44,3.34.58,2,.24,4,.53,6.05.81,2.61.37,5.31.75,8,1,1.45.16,6.88.33,6.67,2.71-.18,2.06-3,1.09-4.27.9a102,102,0,0,0-14.47-1.35c-.2,0-.44,0-.72,0s-.82,0-1.26,0c-1,0-2.29.12-2.67,1.14a2.11,2.11,0,0,0,.15,2c1.14,1.67,4.94,1.76,7,1.81l.75,0a107.06,107.06,0,0,1,11.6,1.19c3.26.58,6.58,1.29,9.78,2,1.5.32,3.54,2.33,2.35,3.92-.66.87-5.95.67-7.3,1.34a1.38,1.38,0,0,0-.73,1,1.77,1.77,0,0,0,.42,1.49A1.51,1.51,0,0,0,285,135a6.14,6.14,0,0,0,1.07-.13,4.54,4.54,0,0,1,.67-.1h.32c1.06,0,1.81.27,1.92.69s-.28,1-1.59,1.71a6.71,6.71,0,0,1-3.26.75,20.86,20.86,0,0,1-2.88-.27c-.55-.08-1.11-.15-1.67-.21l-3.9-.37c-6.25-.59-12.62-2.12-18.69-.79-1.36.29-2.56,1-3.45.42a2.62,2.62,0,0,1-1-1.6c-.65-2.18,1-3.6,3.08-3.81,1.29-.13,2.64.38,3.92.44,2.1.1,4.2.17,6.34.17a50.78,50.78,0,0,1,6.14.79c1.26.16,7,1.18,5.62-1.2s-7.05-3.07-9.45-3.33c-3.76-.4-8.55-2.34-12.12-2.28C251.58,125.89,248.68,130.71,246.73,124.34Zm9,35.18q-2-3.2-3.93-6.49c.74-.79,1.21-2.55,1.66-4.48.1-.44.18-.8.26-1a20,20,0,0,1,2.75-6.19,4.43,4.43,0,0,1,3.82-1.56,23.4,23.4,0,0,1,4.76.71c.86.19,1.67.37,2.37.46a67.88,67.88,0,0,0,6.94.44c1.68.05,3.41.09,5.12.24a24.25,24.25,0,0,0-4.11,2.85c-.54.43-1,.81-1.35,1.05-1,.7-2,1.48-3,2.23a35.34,35.34,0,0,1-4.82,3.4C261.64,153.67,258.84,155.6,255.7,159.52Zm23.09,9.59a2.26,2.26,0,0,1-.71-.1c-1.1-.33-1.85-1.74-2.51-3a10.85,10.85,0,0,0-1.09-1.79,19,19,0,0,0-2.09-2c-2-1.73-4.46-3.88-4.18-5.56.12-.75.82-1.38,2.07-1.89a4.9,4.9,0,0,1,1.87-.39c2.34,0,4,1.85,5,3.4l.34.57c.7,1.2,1.77,3,3.09,3a1.66,1.66,0,0,0,1.06-.43c1.45-1.25-.18-4.41-1.26-6.5-.26-.5-.48-.92-.59-1.21-1.86-4.56,6.38-8.48,11.83-11.07a39.31,39.31,0,0,0,4.1-2.12,58.64,58.64,0,0,1,6.21-3.46c.76-.39,1.52-.77,2.27-1.17a11.87,11.87,0,0,1,5-1.7,3.66,3.66,0,0,1,3.29,2c.1.16.25.49.45.92,1.08,2.31,2.23,4.55,3.39,4.55a.9.9,0,0,0,.47-.13l.1-.06,0-.12c.09-.44.2-.88.31-1.31.45-1.82.92-3.7.34-5.54a8.27,8.27,0,0,0-.64-1.41c-.52-1-.93-1.76-.2-2.81a7.42,7.42,0,0,1,3.35-2.07c.37-.15.72-.29,1-.44a9.66,9.66,0,0,1,3.94-1.06,6.29,6.29,0,0,1,4.49,2.15,8.49,8.49,0,0,1,2.6,5.8,4.7,4.7,0,0,1-1.45,3.47,18.94,18.94,0,0,1-4.53,2.86c-.95.47-1.92,1-2.83,1.54-1.71,1.09-3.42,2.25-5.07,3.38-1.92,1.3-3.89,2.64-5.88,3.88-1.59,1-3.29,2.07-5.49,3.5-2.48,1.61-5.09,3.11-7.6,4.57-2.07,1.19-4.21,2.42-6.28,3.71l-1.69,1.06c-2.2,1.36-4.48,2.77-6.65,4.29-2.41,1.67-4.34,2.56-5.74,2.66Zm29.27,22.67c-1.1-.07-2.21-.15-3.32-.18l-1.3,0c-1.35-.05-14.11.25-10.4-4.13,2.31-2.73,9.2-1.49,12.37-2.35a1.29,1.29,0,0,0,.93-1.32,1.15,1.15,0,0,0-.95-1.14,53,53,0,0,0-10.14-.72c-1.81,0-3.69,0-5.55-.14s-6.4-1.22-7.17-2.84a1.19,1.19,0,0,1,.19-1.27,2.93,2.93,0,0,1,2.62-1.12,14.58,14.58,0,0,1,2.73.36c.44.09.86.17,1.23.22a62.6,62.6,0,0,0,8.59.51c2.51,0,5.06-.09,7.52-.19l2.14-.07c1.15,0,2.29-.06,3.43-.06a84.84,84.84,0,0,1,12.87,1c.35,0,.76.06,1.19.08.89,0,1.89.06,2.18.49a1,1,0,0,1,0,.91c-.32.83-1.27,1.21-2.26,1.49a10.63,10.63,0,0,1-2.94.34c-.44,0-.88,0-1.31,0l-1.31,0c-.28,0-.57,0-.85,0l-1.16,0a17.93,17.93,0,0,0-4.55.54,1.3,1.3,0,0,0,0,2.48c2.49.75,8.77-.19,6.59,4.31-.91,1.88-4.8,3.09-6.64,3.09C311.2,192,309.6,191.87,308.06,191.78Zm10.55,19.61c-.71,1-1.69,2.32-2.77,2.35-.4,0-.48-.68-.48-1.25,0-1.79,2.06-4,3.57-5.56.41-.42.78-.81,1.07-1.15,1.4-1.64,2.83-3.25,4.26-4.87.77-.86,1.53-1.73,2.29-2.59a116,116,0,0,0,12.12-15.77,1.36,1.36,0,0,0,0-1.38,1.45,1.45,0,0,0-1.21-.76,1.22,1.22,0,0,0-.72.24c-3.55,2.55-6.12,6.44-8.61,10.2-.9,1.36-1.75,2.65-2.64,3.87s-5,7.66-5.09,2.13c0-1.17,3.07-4.11,3.79-5.1l1.71-2.34c1.12-1.54,2.19-3.15,3.22-4.71.78-1.17,1.55-2.33,2.35-3.48.32-.45.63-.94,1-1.45,1.39-2.16,3-4.61,5.36-5.27a6.32,6.32,0,0,1,1.66-.19,21.65,21.65,0,0,1,2.26.16c.63.06,1.27.13,1.87.15l2.67,0c2.14,0,4.86-.37,6.51,1.12-1.05,1.35-3.33,1.87-5,2.06-5.22.56-5.55,1.41-5.66,1.68a.71.71,0,0,0,.17.78,2.23,2.23,0,0,0,1.81.71,8.39,8.39,0,0,0,1.23-.11,7,7,0,0,1,.87-.08l.93,0c1.43,0,2.88.1,4.29.19l2,.12c4.46.22,5.33,4.13.2,3.93l-1,0c-1.16,0-2.3.07-3.4.14l-1.87.11-1.29,0c-1.95,0-3.8.05-5.59,1.25a24.78,24.78,0,0,0-5.35,5c-1,1.24-2.09,2.41-3.16,3.54-.9,1-1.83,1.93-2.68,3-1.23,1.48-2.4,3.06-3.52,4.59-.83,1.12-1.69,2.28-2.56,3.38-.63.8-1.32,1.58-2,2.33s-1.48,1.66-2.16,2.55Zm27.05,6.82h-3.09c-1.59,0-3.18.07-4.77.07-2.84,0-5.17-.1-7.34-.31-1.06-.1-2.13-.25-3.17-.4-1.26-.19-2.57-.37-3.87-.47-.31,0-.61,0-.89,0-.65,0-1.21,0-1.47-.28a1.3,1.3,0,0,1-.2-.95c.09-1.38,1.41-2.76,2.58-4A15.56,15.56,0,0,0,325,210a49.2,49.2,0,0,1,5.6-6.9A39.39,39.39,0,0,0,334,199c.77-1.05,1.57-2.13,2.43-3.12l.19-.22c1.67-1.94,3.57-4.13,5.89-5.05a16.77,16.77,0,0,1,5.9-.75h1.84c.67,0,1.33,0,1.95,0,1.2-.07,2.41-.18,3.62-.29,2-.18,4.14-.37,6.21-.37.87,0,1.67,0,2.44.1l.46,0a4.14,4.14,0,0,1,1.81.36c1.8,1.33-2.53,8.64-4.16,11.4-.3.5-.54.9-.68,1.17a73,73,0,0,1-4,6.24c-.58.84-1.16,1.67-1.73,2.52-.37.55-.71,1.12-1,1.69-1.12,1.88-2.18,3.65-4.18,4.63A11.85,11.85,0,0,1,345.66,218.21Zm25,40.49a5.41,5.41,0,0,1-3.31,2.85,3.33,3.33,0,0,1-.84.1,4.3,4.3,0,0,1-1-.12,24,24,0,0,1-6-2.76l-1.25-.71c-2.48-1.38-5-2.95-7.38-4.46a2.49,2.49,0,0,1-1.36-3.16c.19-.8,4-7,4.84-7.64a58.42,58.42,0,0,1,9.41,6.65,27.69,27.69,0,0,0,2.33,1.73c1.88,1.31,3.82,2.66,4.68,4.51A3.49,3.49,0,0,1,370.71,258.7Zm7.52-12.83c-1.09,1.73-3.37,3.48-5.61,3.48a3.67,3.67,0,0,1-1.06-.15c-2.35-.67-4.33-2.31-6.25-3.89l-1.1-.89a20,20,0,0,0-1.94-1.32c-2-1.25-4.09-2.55-3.88-5.09.14-1.75,1.25-3.35,2.33-4.91.31-.45.62-.88.89-1.31,1.52-2.4,3-4.79,4.59-7.17.73-1.14,1.41-2.33,2.06-3.48a35,35,0,0,1,4.11-6.19c1.39-1.55,2.76-2.31,4.21-2.31,1.89,0,3.78,1.22,6,2.64.52.33,1,.67,1.59,1,3.25,2,6.4,4.29,7.36,7.28.54,1.68-.09,2.39-1,3.47-.26.29-.54.6-.81,1-1.72,2.23-3.33,4.62-4.88,6.94l-.27.39c-1.28,1.92-2.43,4-3.55,5.92C380.07,242.77,379.18,244.36,378.23,245.87Z" transform="translate(0 0)"/><path class="cls-1" d="M350.8,381.21c1.87-.4,4.19-.91,4.92-2.86.32-.83.35-1.38.1-1.74a.94.94,0,0,0-.82-.36,7.29,7.29,0,0,0-2.45.75l-.66.27c-.52.2-1.05.38-1.68.56l-1.14.31a10.79,10.79,0,0,0-5.95,3.2,8.29,8.29,0,0,1-3.89,2.68,4.72,4.72,0,0,1-.83.12c-.89.09-2,.2-2.3,1.44a1.47,1.47,0,0,0,.17,1.2,2.43,2.43,0,0,0,1.79.78l.47,0a11.58,11.58,0,0,0,6.11-2.37c.57-.46,1.06-.93,1.53-1.38a8,8,0,0,1,3.69-2.4Z" transform="translate(0 0)"/><path class="cls-1" d="M317.67,329.49a3.5,3.5,0,0,0-4.56-5.32c-2.88,2.47-6.67,5.73-10.49,9.07-26.81,23.51-56,52.91-69.3,92.8a3.5,3.5,0,1,0,6.64,2.21c12.77-38.3,41.17-66.86,67.28-89.74C311,335.18,314.8,331.94,317.67,329.49Z" transform="translate(0 0)"/><path class="cls-1" d="M369.45,368.27a5.11,5.11,0,0,1-.69-1.09,4.93,4.93,0,0,1,0-3.45c.72-2.88.33-4-1.42-6.4a11.64,11.64,0,0,1-1-1.85,9.31,9.31,0,0,0-1.58-2.55,3.93,3.93,0,0,0-.85-.66,1.58,1.58,0,0,0-.69-.18,1,1,0,0,0-.73.3A2.18,2.18,0,0,0,362,354a7.44,7.44,0,0,0,1.7,3.89,8.73,8.73,0,0,1,1.48,2.82,4.08,4.08,0,0,1-.37,2.49,5.9,5.9,0,0,0-.51,2.14c0,1.88,1.8,4.07,3.32,5.57a3.15,3.15,0,0,0,1.88,1,.83.83,0,0,0,.66-.29,1.84,1.84,0,0,0,.21-1.52A4.17,4.17,0,0,0,369.45,368.27Z" transform="translate(0 0)"/><path class="cls-1" d="M402.75,338.76l-.29-.2c-2.73-2-5.4-4.12-8-6.2-3-2.44-6.11-5-9.37-7.19a203,203,0,0,0-19.21-12.08l-.24-.15c-2-1.21-4.92-3.05-7.49-3.05a4.47,4.47,0,0,0-1.29.18c-3.13.92-3.07,6.16-3,10,0,1,0,1.84,0,2.46l-.1,1.12a35.42,35.42,0,0,0,0,8.73,20.5,20.5,0,0,0-2.09-1.25c-.39-.22-.71-.4-.89-.52l-2.49-1.69c-3.5-2.37-7.12-4.83-10.78-7.07-.21-.13-.49-.32-.8-.55-1.05-.75-2.48-1.79-3.61-1.79a1.47,1.47,0,0,0-.67.15c-2.15,1-.46,5.66.45,8.14.15.4.27.73.34,1,.22.69.45,1.35.67,2a27.79,27.79,0,0,1,1.33,4.69,33.94,33.94,0,0,0,1.73,5.82c.34.91.68,1.83,1,2.78.7,2.21,1.52,4.66,2.51,7.51.13.37.29.78.46,1.21.85,2.15,1.91,4.83.14,6.13a21.48,21.48,0,0,1-5.17,2.38c-1.13.4-2.19.79-3.12,1.23l-1.38.65c-2.33,1.11-4.75,2.25-7.18,3.25-2.27.93-4.67,1.65-7,2.34s-4.73,1.42-7,2.36l-.78.28c-2.09.71-4.14,1.5-4.27,2.59-.11.92.8,1.72,1.7,2.39a1.86,1.86,0,0,0-1.2.71,2,2,0,0,0-.36,1.77,14.9,14.9,0,0,0,2.3,4.55,5.86,5.86,0,0,0-2.87-1.17,2,2,0,0,0-.36,0,1.52,1.52,0,0,0-1.21.9c-.41,1.1.71,2.76,1.58,3.91a31.55,31.55,0,0,0,6.44,5.83c.88.66,1.78,1.34,2.63,2,2.77,2.26,5.62,4.47,8.38,6.61,4.49,3.49,9.14,7.1,13.5,11a39.52,39.52,0,0,1,3.23,3.35c.78.87,1.59,1.78,2.46,2.64a17,17,0,0,0,1.91,1.54c.36.27.73.53,1.08.81a11.69,11.69,0,0,1,1.07,1.05,7.51,7.51,0,0,0,1.66,1.48,5,5,0,0,0,2.54.7h0c2.48,0,4.86-1.75,6.77-3.16l.44-.32c4-2.94,7.82-6.13,11.67-9.42a95.84,95.84,0,0,1,10-7.56c.94-.62,2-1.2,2.94-1.76a26.48,26.48,0,0,0,6.55-4.71c1.79-2,2.6-4.78,3.31-7.26.16-.57.32-1.14.49-1.67.86-2.75,1.56-5.62,2.23-8.39.8-3.3,1.63-6.72,2.74-10,1.86-5.42,4-11,6.9-17.67.29-.67.62-1.33,1-2a23.68,23.68,0,0,0,1.54-3.5,9,9,0,0,0,.39-1.88C406.81,341.65,404.83,340.25,402.75,338.76ZM378,393.27a6,6,0,0,1-1.77,2.38,36.14,36.14,0,0,1-4.95,3.55c-.75.47-1.44.9-2,1.28-1.1.78-2.17,1.61-3.21,2.42s-2.15,1.68-3.29,2.49a20.52,20.52,0,0,1-2.65,1.51l-1,.51a11.58,11.58,0,0,0-1.62,1.11,5.14,5.14,0,0,1-3.15,1.45h-.13c-1.76-.06-3.26-1.43-4.64-2.82a67.89,67.89,0,0,0-7-5.87c-.72-.56-1.45-1.11-2.16-1.68l-.48-.37a125.41,125.41,0,0,1-13.49-11.67c-1.74-1.81-3.58-3.63-5.36-5.38l-2.59-2.57c-.28-.28-.66-.59-1.06-.92-1.09-.88-2.46-2-2.5-3.08-.08-1.83,3.07-2.53,5.14-3a14.86,14.86,0,0,0,1.66-.43A127.73,127.73,0,0,0,335,366.31l1.93-.94a20.63,20.63,0,0,1,6.49-2.21c.32,0,.62-.05.9-.05,1.81,0,2.92.74,4.72,2.06A134.23,134.23,0,0,1,360.43,375c1.56,1.44,3.11,2.86,4.67,4.25.89.78,1.75,1.58,2.61,2.37,1.57,1.44,3.19,2.93,4.89,4.31l.54.42C375.12,387.86,378.8,390.77,378,393.27Zm-8.58-16.59c-1.49-1.2-3-2.38-4.36-3.57-2.3-1.95-4.59-3.93-6.87-5.91q-2.51-2.18-5-4.34l-.94-.79c-5.27-4.46-7.42-12-9-18.81-1.07-4.47-2.77-8.9-3.74-13.32a216.29,216.29,0,0,1,18.13,12.59c2.6,2,5.81,3.08,8.51,4.83,6.47,4.2,8.47,14.7,10.1,21.78.6,2.6,1.08,5.3,1.54,7.91s1,5.57,1.64,8.32A116.34,116.34,0,0,0,369.39,376.68Zm28.66-27.05q-.1.39-.15.6a43.15,43.15,0,0,1-3,8.45,23.53,23.53,0,0,0-1.12,2.9c-.47,1.43-.85,2.92-1.23,4.37s-.75,2.92-1.2,4.3c-.6,1.83-1.22,3.69-1.84,5.55s-1.16,3.44-1.71,5.1c-.13.43-.28,1-.45,1.63-.47,1.84-.8,4.17-2,5.54-2.61-2.61-2-7.27-2.52-10.67-1.26-7.71-1.86-15.42-3-23.14-.67-4.48-2.27-6.06-6.09-8.57s-8.31-3.76-11.85-6.68c-4.32-3.57-4-17-1.66-21.69-.78,1.58,34.51,24.77,38.29,26.86C399.41,344.68,398.39,348.41,398.05,349.63Z" transform="translate(0 0)"/><path class="cls-1" d="M390.14,347.75a4.15,4.15,0,0,0-1.86.62c-4.11,2.26-4.35,6.59-4.18,9.65,0,.6.1,1.2.16,1.8a17.75,17.75,0,0,1,.15,3.41v.19c0,.46-.14.93-.24,1.42-.28,1.48-.58,3,.22,4.46.3.55.66.84,1,.84,1,0,1.59-1.81,1.81-2.59a10,10,0,0,0,.21-3.38l0-.52a29.83,29.83,0,0,1,.32-7.11,10.18,10.18,0,0,1,1.95-3.53l.47-.66c.87-1.24,1.54-3.07,1.05-4A1.11,1.11,0,0,0,390.14,347.75Z" transform="translate(0 0)"/><path class="cls-1" d="M358.81,386.62a11.47,11.47,0,0,0-4.48,1,10,10,0,0,0-2.76,2.65l-.65.79a10.7,10.7,0,0,1-1.6,1.42,10.06,10.06,0,0,0-1.66,1.48,1.22,1.22,0,0,0-.37,1.09,1.3,1.3,0,0,0,.93.8,4.8,4.8,0,0,0,1.56.29c2.08,0,3.25-1.71,4.39-3.36.87-1.27,1.69-2.47,2.87-2.86.12,0,.39-.08.72-.14,1.67-.26,3.2-.57,3.45-1.42a1.26,1.26,0,0,0-.55-1.25A2.73,2.73,0,0,0,358.81,386.62Z" transform="translate(0 0)"/><path class="cls-1" d="M340.34,373c3.79-1.49,6.12-2.61,6-3.58-.07-.49-.63-.77-1.84-.9l-.11,0a16,16,0,0,0-1.7-.09,11.34,11.34,0,0,0-5.7,1.31,20.07,20.07,0,0,0-3.56,3,20.31,20.31,0,0,1-3.25,2.75,10.3,10.3,0,0,1-1.33.66c-1.24.55-2.64,1.17-3.07,2.45a1.8,1.8,0,0,0,.07,1.66,1.85,1.85,0,0,0,1.59.62,6.44,6.44,0,0,0,2-.36,17.71,17.71,0,0,0,5.87-3.93,23.28,23.28,0,0,1,4.15-3.15C339.53,373.35,339.87,373.22,340.34,373Z" transform="translate(0 0)"/><path class="cls-1" d="M356.35,355.06a25.48,25.48,0,0,1,.14-3.43c.3-3.42.63-7.3-3.09-9.59a2.56,2.56,0,0,0-1.26-.46.8.8,0,0,0-.66.3c-.3.38-.33,1.08-.09,2.14s.49,1.89.74,2.74c.67,2.3,1.25,4.28.71,7.07a8.1,8.1,0,0,0,1.26,5.47,2.26,2.26,0,0,0,1.79.92l.39,0a1.11,1.11,0,0,0,.8-.52c.48-.79,0-2.25-.4-3.42A6,6,0,0,1,356.35,355.06Z" transform="translate(0 0)"/><path class="cls-1" d="M510.71,234.41a5.11,5.11,0,0,0,3.62,3.41c3.61.9,8.26-2.06,8.27-6.36C522.63,222.8,507.68,226.3,510.71,234.41Z" transform="translate(0 0)"/><path class="cls-1" d="M705.7,266.6a3.52,3.52,0,0,0-4.44,1.94,119.6,119.6,0,0,1-8.42,17.6C691.25,289,680.93,304.19,676,302c-.79-.45-2.38-3.43-3-5.52-1.59-4.92-.8-16-.8-24.17,0-3.13,3.18-3.72,10.8-12.23,4.93-5.52,7.94-11.18,7.94-15.21,0-3-2.06-5.52-5.71-6.56-8.58-2.24-15.57,2.23-20.81,7.9-5.92,6.42-10,16.85-11,27.35-.92,4.16-2.45,10.6-4.43,17.25-5.88,19.69-10.65,24-12.39,24.91-.64.3-1.27.45-1.75,0-.79-.6-3.18-5.37-4.13-8.2a48.85,48.85,0,0,1-2.54-11.19c-.32-3.13-.79-13.28-1-22.08l1.58-2.23c9.06-13.43,13-21.78,14.46-29.69,1.74-9.24-1.59-23.42-12.87-24.91-3.65-.15-6.51.75-7.94,2.09a58.87,58.87,0,0,0-8.71,17.6h-2.4c9.21-20.88-12.87-25.95-24.3-8.35a70.62,70.62,0,0,0-4.67,8.38l-1.37,0h-5.24c9.21-20.88-12.86-25.95-24.3-8.35a80.31,80.31,0,0,0-5.24,9.55c-3.81.59-18.9,1.64-19.22,5.37.8,4.62,12.87,3.28,15.57,3.28.16,0-.16.74-.32,1.49a181.5,181.5,0,0,0-4,23c-2,8.66-7.28,25.51-14.85,29.94-6.35,3.73-8.1-5.67-8.26-9.4-.47-14.32,6-27.74,5.09-41.76-.26-4.65-6.29-6.4-9.74-2.86-3,3.11-3.34,8.21-4.72,12a95.22,95.22,0,0,0-4,14.17,73.06,73.06,0,0,0-2.07,12.3c-.44,1.63-.91,3.31-1.42,5-5.87,19.69-10.64,24-12.39,24.91-.63.3-1.27.45-1.74,0-.8-.6-3.18-5.37-4.13-8.2a48.33,48.33,0,0,1-2.54-11.19c-.32-3.13-.8-13.28-1-22.08l1.59-2.23c9.05-13.43,13-21.78,14.45-29.69,1.75-9.24-1.58-23.42-12.86-24.91-3.65-.15-6.51.75-7.94,2.09-15.57,21.18-12.23,49.22-11.91,60.56,1.58,19.09,7.14,33,15.56,38.93,2.86,2.09,6.2,3.58,9.37,3.58a9.49,9.49,0,0,0,4.45-1.19c3.33-1.79,6.35-5.67,9.37-11.79a84.18,84.18,0,0,0,3.95-9.6c3.43,5.64,9.62,8.86,17.65,8.86,7.6,0,13-6.48,16.65-13.24.35,13.85,3.14,34.07,18,31.29,2.7-.75,6.19-2.84,10.16-10.74a160.06,160.06,0,0,0,7.49-18.88c.54,13.74,3.68,32.29,17.92,29.62,2.7-.75,6.2-2.84,10.17-10.74,4.13-8.42,7.62-18.95,10.8-29.1,2.25,15.48,7.42,26.72,14.77,31.93,2.85,2.09,6.19,3.58,9.37,3.58a9.49,9.49,0,0,0,4.44-1.19c3.34-1.79,6.35-5.67,9.37-11.79a110.1,110.1,0,0,0,6.31-16.85c3.32,8.66,10.22,15.05,21.8,15.66,7.31-.6,14.46-7.31,21.6-19.24a122.89,122.89,0,0,0,8.74-18.5A3,3,0,0,0,705.7,266.6Zm-229.8-3v-4.47c0-3.58.32-9.55.63-14.17.64-8.65,2.54-16.71,4.77-20.44,1.27-2.08,1.9-.59,3,.75,4.12,5.82,3.33,13.87,1.42,19.69-1.27,4.77-5.24,13.27-8.89,18.79l-1,1.64Zm94-41.31c.16,0,.47.29.79.74,1.91,2.24,1.43,7.46-1.27,14-3.18,0-5.56.15-7.78.15C562.61,233.78,566.9,222.3,569.92,222.3Zm-9.85,22.52a6.17,6.17,0,0,1,2.78-.48,3.18,3.18,0,0,0,1.13,1.21c-1.09,1.75-3.62,5.71-6,9C558.32,253.92,558.8,247.65,560.07,244.82Zm17.79,3.58a176.46,176.46,0,0,0-3.93,22c-2.75,8.71-5.75,16.66-8.62,24.74-2.38,6.86-4.45,13.27-7,18.19-1.9,4-3.49,5.82-4.44,6.42l-1-4.33c-1.43-10-.47-23.71,4-50.12,5.84-8.1,9.24-13,12.52-18.27a83.23,83.23,0,0,0,8.76-.07C578.33,246.91,578,247.65,577.86,248.4Zm27.63-26.1c.16,0,.48.29.8.74,1.9,2.24,1.42,7.46-1.28,14-3.17,0-5.55.15-7.78.15C598.19,233.78,602.47,222.3,605.49,222.3Zm-9.85,22.52c.32-.45,4.45-.75,4.45-.15-.16.3-3.49,5.67-6.51,9.84C593.9,253.92,594.37,247.65,595.64,244.82Zm14.47,23.71a1.27,1.27,0,0,0-.17.45c-2.86,9.25-6,17.6-9.06,26.11-2.38,6.86-4.44,13.27-7,18.19-1.91,4-3.5,5.82-4.45,6.42l-1-4.33c-1.43-10-.48-23.71,4-50.12,7-9.69,10.48-14.76,14.45-21.48a45.48,45.48,0,0,1,5.19-.37A107.32,107.32,0,0,0,610.11,268.53Zm21.9-44c1.27-2.08,1.91-.59,3,.75,3.34,4.7,3.46,10.87,2.37,16.13a3.41,3.41,0,0,0-1.73-1.81,23.62,23.62,0,0,0-7.57-1.91C629,232,630.43,227.18,632,224.53Zm-5.4,39.08v-4.47c0-3.58.32-9.55.64-14.17,0-.66.1-1.31.17-2,1.09,0,2.06,0,2.85,0,5.24.15,5.71,0,6.51-.45a1.6,1.6,0,0,0,.45-.39c-.23,1-.48,1.9-.77,2.78-.56,5.71-3,16.27-8.9,18.79l-.95,1.64Zm44.47-.89c0-.15.48-1.79,1.11-3.88,2.07-5.82,5.08-11.34,8.26-14.47,1.43-1.34,1.43-1.34,1.91-.89C686.8,247.65,672.67,261.08,671.08,262.72Z" transform="translate(0 0)"/><path class="cls-1" d="M561.38,350.81c-11-.82-21.32-.54-31.91-.82-6.66,1.63-5,5.84-.68,7.07l10.86.4c.14.14.28,26.48.28,36.94,0,9.78-.55,37.89-.68,47.53,1,3.81,6.52,5,7.6.95v-1.76c0-6.52.54-17,.54-22.55.28-17.51.82-60.56,1-60.7l14.8.27C567.09,358.14,567.49,351.35,561.38,350.81Z" transform="translate(0 0)"/><path class="cls-1" d="M585.15,452.39l4.07-92.89c0-.27.14-2,.14-2.44,0-3.94,0-5.71-3.94-5.71-2.85,0-3.53.14-4.48,2.85L577.27,455C577.27,458.91,584.88,458.36,585.15,452.39Z" transform="translate(0 0)"/><path class="cls-1" d="M655,350.13c-3.39-2.31-6.38-2.72-7.74,0-3,5-14.8,43.18-18.74,47.67L611.9,352.44c-1.63-4.48-7.87-1.36-7.87,2.71.27,85.7-1,88.55-1,92.89,0,2.58-.13,3.26,2.72,3.26a6.66,6.66,0,0,0,4.21-.95c3.26-25.39.41-51.47,2.72-77,4.48,11.14,7.6,22.41,11.13,33.82a9.65,9.65,0,0,0,.95,1.63c1.09,1.22,7.47.95,7.74-1.77l14.67-36.12c1.36,27.29,2.17,54.59,1.77,82,.81,2.18,1.35,2.72,3.53,2.72a4.33,4.33,0,0,0,4.21-4.62c0-12.22-.68-24.85-.82-36.94C655.77,394.94,655.09,350.13,655,350.13Z" transform="translate(0 0)"/><path class="cls-1" d="M685.78,448.59c-1.22,0-5.84,0-7.06-.14l.4-35.44,13.58-2c5.44-.82,7.88-7.06,1.5-7.06h-.68l-14.67,2.17L678.17,361h16.3c2.17,0,5.84-1.22,5.84-3.93a1.18,1.18,0,0,0-.14-.68c-.13-.68-2.85-2.72-3.66-2.72H675.05a5,5,0,0,0-4.75,4.75l1.49,94.79c0,2.58,30.42,3.13,30.15-1.49C701.53,445.46,694.88,448.59,685.78,448.59Z" transform="translate(0 0)"/><path class="cls-1" d="M13.23,304.24c3.88,5.92,10.84,4.6,12.8-1.9,1.62-5.34.71-11.12,1.26-16.58.48-10.28.83-14.13,1.5-20,.9-6.37,2.89-17.78,2.86-14.88,0,.77,0,6.54.37,10.91.12,7.14.61,14.68,4.63,20.34a7.81,7.81,0,0,0,6.73,3.28c7.47-.94,10.4-36.23,15.47-43.21,0,0-.12,1.24-.37,2.64-3.5,20.92-7.79,41.64-2.27,59.71,2.13,7.31,6.17,12.05,10.76,13.21,9.93,2.35,14.23-7.86,16-15.43.8-3.58,1.39-6.69,1.88-9.58a13.25,13.25,0,0,0,3.59,4.36c1.69,1.23,5.07,3.32,7.28,3.22,3.24-.15,5.84-1.6,8.28-4.11,2.64-2.82,3-5.31,3.71-8l.46-2.05c4.15,13.86,6.28,19,11.27,20.89,11.41,4.13,20.07-1.24,22.52-24.13.32-3.15.7-6.17,1.06-8.87,3,6,6.53,11.68,9.56,14.93,4.77,5.55,14,8.31,16.26.83,1.4-12.38-.38-24.61.88-36.82.83-8.95,3.43-17.25,7.7-22.44,3.76,6,2.78,10.71,2.5,18.21-.68,16.24-2.78,34.21,2.37,49.75,2.95,8.7,10.51,17.8,20.35,16.37,10.8-1.57,13.54-20.22,14-36.89,4,4.36,9.68,6.23,15.25,2.78,4.47-2.78,8-7.09,11.32-27.84l5.87,19.4-3.85,8c-4.2,8.84-6.1,13.53-7.67,18.48a50.18,50.18,0,0,0-2.41,13.75c.95,11.73,12,15.3,22.26,12.74,22.69-8.33,14.1-33.88,8.28-49.78l-2.3-6.36a4.33,4.33,0,0,1,1-1.22c6.44-7,11.41-11.56,12-24,.08-1.53-.22-3.62-2.35-3.62a3.83,3.83,0,0,0-4.11,3.19c-1.1,8.08-3.8,12.58-9.17,18.54a174.73,174.73,0,0,1-6.26-21c-1-4.54-.95-8.32-5.56-9.32-3.46-.76-5.9.49-7.51,3.61-2.21,4.28-3.67,9.6-4.87,14.26-1.75,6.8-6.82,22.16-7.74,21.07-.53-.53-.92-7.32-.84-11,.09-5.65-.11-17.49-.44-21.86-.18-4.67-.45-14.9-8.14-13.29-4.4.92-7.32,7.77-8.27,11.42-1.69,6.38-2,15-1.18,22.89.18,8.12-.11,16.23-.63,24.26a102.49,102.49,0,0,1-2.7,17c-1.48,5.55-3.14,7.77-4.31,8.09-4.69-9.21-4.4-18.69-4.19-28.77.43-22.14.27-27.45-1.22-34.54-2-9.9-6.88-22.14-18.81-19.34-19,5.06-15.24,34.35-16.21,48.65-2.07-2.66-2.1-8.47-2.69-11.63-1.22-6.6-2.37-13.23-4.05-19.73-1.08-4.17-2.15-10.2-5.7-13.09-8.2-6.66-14.21,6.95-14.47,13.35a67.16,67.16,0,0,0,3.07,19.12c0,.13-.06.26-.07.39s-.79,9.25-2.55,19.1a65.67,65.67,0,0,1-3.67,13.47c-.83,1.65-2.93,5-4.34,3.68-1-.91-1.6-3.72-1.68-7.37-1.09-7.45,2.28-37.63,1.31-44.34a12.72,12.72,0,0,0-2.05-6.71c-.81-1.4-3-2.61-3.35-2.1-.25.34-.4.37-.91,0-1.39-1.16-2.5-1.46-4.85-1.88a24.2,24.2,0,0,0-12.08.69c-7.49,1.86-15,8-19.07,15.42-3.31,6-4.6,14.79-4.17,23-1.92,12.49-6.37,38.92-10,36.57-2-1.23-3.44-12.13-3.29-18.4.5-19.56,6-38.32,6.88-57.33.62-12.43-9.38-16.3-15.34-6-7.51,13.27-10.34,28.3-14.39,42.29a146.82,146.82,0,0,1-1.56-17c-.2-2.4-.6-7.22-1.14-10.95-.81-7.64-1.2-10.33-3-11.13-9.16-4.3-9,2.07-11,9.06C25.19,251.5,23.7,259,22.09,271l-.83,6.82-.2-2.4c-.35-4.52-.78-11.61-.81-17.09-.38-10.91-.6-14.53-1.53-20.94-.49-3.35-1.52-13.63-7.13-12.9-3.78.49-6.18,8.85-6.65,11.91-1.34,8.79-1,17.86-.6,26.71C5.38,284.84,8,296.19,13.23,304.24Zm240.31-20.53s1.18,2.87,2.45,6.34c1.93,6,8.85,27.33-2.63,29-9.24,1.34-7.06-11.91-6-16.8C248.21,298.34,253.2,283.45,253.54,283.71Zm-153-26a22.56,22.56,0,0,1,8-11.21c1-.75,2-1.05,1.89-.58-2.75,7.25-.87,14.9-3.39,21.66-1.9,5.75-4.43,16.63-6.48,20.28l-1,1.51-.26-.72a96,96,0,0,1-1.74-13C97.64,270.18,99,261.76,100.55,257.73Z" transform="translate(0 0)"/><path class="cls-1" d="M117.56,207a25.84,25.84,0,0,0,3,.12c10.3,0,14.63-6.1,16.41-16.53,2.29-13.74-3.56-24.17-10.3-35.88-4.33-7.38-7.64-10.68-6.24-18.82,2.93-17.81,16.41-7.25,17.56-13.49.63-3.56-1.78-4.32-5.22-4.7a21.14,21.14,0,0,0-2.8-.13c-10.56,0-15.39,6.87-17.17,16.92-1.15,7.12.76,12,4.33,17.55,7.63,12,14.62,22.77,12.33,37.15-1.14,6.87-3,12.72-11.32,11.32-5.09-.77-4.2-7-8.9-7.76-1.78,0-3.69,1.52-3.82,3,0,.26-.13.64-.13.89C105.34,201.9,113.1,206.22,117.56,207Z" transform="translate(0 0)"/><path class="cls-1" d="M150.88,154.07c0,14.88,1,53.3,23.54,53.3,12.72,0,17.42-16.16,18.31-25.44,1.28-16.92,4.58-71.11-18.19-73.66C152,108.27,150.88,137.91,150.88,154.07Zm35.75,6.1v.51c0,8-.13,40.33-12.59,40.33-9,0-15.91-10.18-15.91-47.45,0-3.56,0-7.13.13-11.2,0-6.36,4.07-27.6,13.61-27.6C184,114.76,186.63,150.38,186.63,160.17Z" transform="translate(0 0)"/><path class="cls-1" d="M545.28,191.73c-6,0-5.84-6.62-11.45-6.7-2.08.27-4.11,2.13-4.05,3.73,0,.27-.07.68,0,.94.69,5.41,10.34,8.72,15.65,8.85a35.73,35.73,0,0,0,3.59-.33c12-1.55,16.3-8.52,17-19.59.85-14.57-7.37-24.5-16.81-35.6-6-7-10.35-9.93-9.79-18.57,1.06-18.88,18.23-10,18.74-16.59.27-3.79-2.65-4.22-6.72-4.1a29.19,29.19,0,0,0-3.29.29c-12.36,1.58-17.1,9.42-17.85,20.1-.39,7.55,2.48,12.27,7.39,17.53,10.52,11.24,20.13,21.39,19.36,36.62C556.6,185.59,555.14,191.94,545.28,191.73Z" transform="translate(0 0)"/><path class="cls-1" d="M599.13,113c-19.94,0-21.4,26.83-21.94,36.93-.22,4.05-.89,16.37,1.49,26.81,2.71,11.84,8.48,18.08,17.15,18.55.26,0,.52,0,.77,0,13.23,0,16.5-18.27,16.83-20.36,5.18-38.32.68-59.73-13-61.92Zm9.32,43.67,0,.42c-1.13,20.88-5.48,32.38-12.26,32.38h-.35c-4.32-.23-7.36-3-9.31-8.39-2.35-6.51-3.11-16.72-2.33-31.19.16-2.87.32-5.84.61-9.22.28-5.09,4.76-21.85,12.64-21.85h.31C608.19,119.35,608.85,149.25,608.45,156.63Z" transform="translate(0 0)"/><path class="cls-1" d="M7.12,421.45c3.28,1.25,4.3,1.25,7.35.68l2.83-.68C28,418.4,36.87,410,36.87,398.27c0-15-4.08-31-18.78-37.54,5.88-5.32,6.56-6.34,6.56-14.14,0-11.76-9.61-16.28-20.35-17-1.93-.11-4.3,1-4.3,3.05a34.05,34.05,0,0,0,.68,7.81C2.49,350.66,2.71,418.85,7.12,421.45Zm23.3-25.1c0,11.76-6.22,20-18.89,20h-.67c-.8-16.28-2-30.64-2.94-47.6,0-.57-.12-3.51-.12-4.07C25,364.69,30.42,381.42,30.42,396.35ZM6.33,336.08c7.47,0,11.76,4.41,11.76,11.76,0,5.2-3.39,10.06-9,10.06a12,12,0,0,1-1.93-.11c-.11-.79-.56-5.43-.56-6.45C6.45,349.08,6.33,338.45,6.33,336.08Z" transform="translate(0 0)"/><path class="cls-1" d="M63,331.67c-20,0-21,26.34-21,40.71,0,13.23.91,47.38,20.92,47.38,11.31,0,15.5-14.36,16.29-22.62C80.29,382.1,83.23,333.93,63,331.67Zm10.74,46.58c0,7.13-.11,35.85-11.2,35.85-8,0-14.13-9-14.13-42.18,0-3.16,0-6.33.11-9.95,0-5.65,3.62-24.54,12.1-24.54,10.74,0,13.12,31.67,13.12,40.37Z" transform="translate(0 0)"/><path class="cls-1" d="M112.4,331.67c-20,0-21,26.34-21,40.71,0,13.23.9,47.38,20.92,47.38,11.31,0,15.49-14.36,16.28-22.62C129.7,382.1,132.64,333.93,112.4,331.67Zm10.74,46.58c0,7.13-.11,35.85-11.19,35.85-8,0-14.14-9-14.14-42.18,0-3.16,0-6.33.12-9.95,0-5.65,3.62-24.54,12.1-24.54,10.74,0,13.11,31.67,13.11,40.37Z" transform="translate(0 0)"/><path class="cls-1" d="M164.42,420.66c.9,1.47,1.47,1.47,2.94,1.47a3.34,3.34,0,0,0,2.83-5.09L149,377.8l18.32-42.29c1.58-5-1.47-5.65-3.05-5.65-4.07,0-4.19,4.52-5.09,7.69-2.71,9.49-8.37,21.48-15.15,35.05l-1.13-37.77c-.12-2.94-1.14-4.29-3.4-4.29a3.11,3.11,0,0,0-3.16,3.27l3.16,87.42c.23,4.52,5,3.28,6.22.22,0-14.25-1.47-32.79-1.47-38v-.91C152,394.31,158.09,409.24,164.42,420.66Z" transform="translate(0 0)"/><path class="cls-1" d="M187.38,415.91h-.68c-5.66-3.28-1.36-13.23-5.88-14.59-1.81-.56-4.41,1.36-4.41,3.28,0,6.79,2.6,17.19,11,17.19,6.9,0,12-8,13.79-13.91,2.72-8.59.34-21.26-4.29-30-5.09-9.5-14.7-17.53-14.7-28.95,0-4,.45-12,6.22-12,6.22,0,4.86,6.78,9.27,6.78,2.26,0,2.94-1.24,2.94-3.39,0-5.88-8.26-9.83-13.23-9.83-7.81,0-11.65,10.51-11.65,16.84,0,14,11.42,24.2,16.74,36.42,2.6,5.88,3.05,12.55,3.05,18.77C195.52,407.2,193.71,415.91,187.38,415.91Z" transform="translate(0 0)"/><path class="cls-1" d="M80.36,175.85a12.89,12.89,0,1,0-9.12-3.77A13,13,0,0,0,80.36,175.85Z" transform="translate(0 0)"/><path class="cls-1" d="M653.33,172.13c15.7,0,15.7-24.34,0-24.34S637.63,172.13,653.33,172.13Z" transform="translate(0 0)"/><path class="cls-1" d="M200.34,452.41a3.61,3.61,0,0,0,0-6.18c-6.4-3.73-14.56-2.48-21.7-2.4l-23.87.27c-16.58.18-33.16.27-49.73.37-15.92.09-31.84.1-47.75.29-8,.09-15.91.23-23.87.35s-17-.84-24.64,1.42a2.92,2.92,0,0,0,0,5.58c7,2.08,15.36,1.28,22.65,1.38l23.87.36c16.58.24,33.16.22,49.74.32,15.91.09,31.83.17,47.74.35l23.87.26C184.3,454.87,193.48,456.41,200.34,452.41Z" transform="translate(0 0)"/><path class="cls-1" d="M614.29,489l-.89.37c-4.23,0-8.39-.75-12.62-.84l-2.3,0c-2.21-6.23-5.12-12.34-5.94-18.87a3.1,3.1,0,0,0-.68-1.62c0-.07,0-.14-.05-.21a2.24,2.24,0,0,0-3.69-1c-2.89,2.39-3.9,7.3-5.61,10.6-1.59,3.05-3.35,6-5.06,9-2.42-.4-4.85-.81-7.28-1.19-4.85-.76-10.15-2.13-15-1.13a1.83,1.83,0,0,0-.8,3,2.3,2.3,0,0,0,.56,1.08c4.3,4.75,10.1,8.09,15.75,11.53-2.34,5.12-4.49,10.33-6.67,15.47-.65,1.52.93,3.44,2.31,2.75,6.7.29,13.13-4.1,18.84-7.8,2.07,1.6,4.18,3.14,6.42,4.56,3.63,2.3,8.3,3.87,10.74,7.59,2.24,3.41,7.76.19,5.47-3.2-.17-.26-.37-.5-.55-.74a2,2,0,0,0,0-1.06A169.45,169.45,0,0,0,602.43,501c3.42-1.67,6.68-3.75,10.09-5.42.7,0,1.39,0,2.08-.09a3.24,3.24,0,0,0,2.94-3.63C617.74,490.11,616.41,488.19,614.29,489Z" transform="translate(0 0)"/><path class="cls-1" d="M114.55,59.56c4.3,4.76,10.1,8.1,15.75,11.54-2.33,5.12-4.49,10.33-6.67,15.47-.65,1.52.94,3.44,2.31,2.75,6.71.29,13.13-4.1,18.84-7.8,2.07,1.59,4.19,3.14,6.43,4.56,3.62,2.3,8.29,3.86,10.74,7.59,2.23,3.41,7.76.19,5.47-3.2-.18-.26-.37-.5-.56-.74a2,2,0,0,0,0-1.06c-1.23-5.48-3.07-10.86-4.84-16.24,3.42-1.67,6.67-3.75,10.09-5.42.69,0,1.38,0,2.07-.1a3.22,3.22,0,0,0,2.94-3.62c.2-1.78-1.13-3.7-3.24-2.9l-.9.37c-4.22,0-8.38-.75-12.62-.85l-2.3,0c-2.2-6.23-5.11-12.34-5.93-18.88a3,3,0,0,0-.69-1.61,1.74,1.74,0,0,0-.05-.22,2.23,2.23,0,0,0-3.68-1c-2.9,2.39-3.9,7.3-5.62,10.6-1.58,3.05-3.34,6-5,9q-3.65-.61-7.29-1.19c-4.85-.76-10.14-2.13-15-1.13a1.84,1.84,0,0,0-.8,3A2.31,2.31,0,0,0,114.55,59.56Z" transform="translate(0 0)"/><path class="cls-1" d="M169,475.06c-5.74-3.45-13.07-2.21-19.48-2.13l-23.73.32c-7.91.1-15.82.18-23.72.37-7.44.18-15.26-.36-22.37,2.09a2.33,2.33,0,0,0,0,4.46c6.53,2.26,13.56,1.88,20.39,2.05,7.91.19,15.81.29,23.72.39l23.73.32c6.91.09,15.28,1.61,21.46-2.1A3.38,3.38,0,0,0,169,475.06Z" transform="translate(0 0)"/><path class="cls-1" d="M159.18,504.92c-6.73-2.29-13.6-1.73-20.6-1.6-8,.15-15.77,1.66-23.73,2.07a2.55,2.55,0,0,0,0,5.1c7.3.38,14.38,1.9,21.75,2,7.61.14,15.27.93,22.58-1.56A3.16,3.16,0,0,0,159.18,504.92Z" transform="translate(0 0)"/><path class="cls-1" d="M542.35,77.11c3.68,3.73,8.37,2.48,12.47,2.4l13.71-.27c9.52-.19,19-.27,28.57-.37,9.14-.09,18.28-.1,27.42-.29,4.57-.1,9.15-.24,13.72-.35s9.78.84,14.15-1.42c1.59-.82,1.59-4.76,0-5.58-4-2.09-8.82-1.28-13-1.39l-13.71-.35c-9.52-.24-19-.22-28.57-.32-9.14-.09-18.29-.17-27.43-.35L556,68.55c-4.4-.08-9.67-1.62-13.61,2.38C541,72.28,541,75.76,542.35,77.11Z" transform="translate(0 0)"/><path class="cls-1" d="M555.62,48.28c5,3.45,11.27,2.21,16.8,2.13l20.45-.32c6.82-.11,13.64-.18,20.45-.37,6.41-.18,13.16.36,19.28-2.1a2.46,2.46,0,0,0,0-4.46c-5.63-2.25-11.69-1.88-17.57-2-6.82-.19-13.64-.29-20.46-.4l-20.45-.31c-6-.09-13.17-1.61-18.5,2.1A3.68,3.68,0,0,0,555.62,48.28Z" transform="translate(0 0)"/><path class="cls-1" d="M564.59,18.41c6.08,2.3,12.29,1.73,18.62,1.6,7.26-.14,14.25-1.65,21.43-2.07,3-.17,3-4.92,0-5.09-6.59-.38-13-1.9-19.65-2-6.87-.14-13.79-.93-20.4,1.57A3.26,3.26,0,0,0,564.59,18.41Z" transform="translate(0 0)"/></svg>